<svg width="28" height="29" viewBox="0 0 28 29" fill="none" xmlns="http://www.w3.org/2000/svg">
<g clip-path="url(#clip0_48_24)">
<path d="M13.9987 8.89128V4.22461H2.33203V25.2246H25.6654V8.89128H13.9987ZM6.9987 22.8913H4.66536V20.5579H6.9987V22.8913ZM6.9987 18.2246H4.66536V15.8913H6.9987V18.2246ZM6.9987 13.5579H4.66536V11.2246H6.9987V13.5579ZM6.9987 8.89128H4.66536V6.55794H6.9987V8.89128ZM11.6654 22.8913H9.33203V20.5579H11.6654V22.8913ZM11.6654 18.2246H9.33203V15.8913H11.6654V18.2246ZM11.6654 13.5579H9.33203V11.2246H11.6654V13.5579ZM11.6654 8.89128H9.33203V6.55794H11.6654V8.89128ZM23.332 22.8913H13.9987V20.5579H16.332V18.2246H13.9987V15.8913H16.332V13.5579H13.9987V11.2246H23.332V22.8913ZM20.9987 13.5579H18.6654V15.8913H20.9987V13.5579ZM20.9987 18.2246H18.6654V20.5579H20.9987V18.2246Z" fill="#9C9C9C"/>
</g>
<defs>
<clipPath id="clip0_48_24">
<rect width="28" height="28" fill="white" transform="translate(0 0.724609)"/>
</clipPath>
</defs>
</svg>
