<svg width="100" height="100" viewBox="0 0 100 100" fill="none" xmlns="http://www.w3.org/2000/svg">
<path d="M22.1555 44.2616V62.9085L33.2715 56.714V43.2645L21.6039 36.5186L10 43.307V56.714L21.116 62.9085V44.2616L17.2551 47.8679V57.1383L16.3853 56.714V48.5467L13.9245 50.6893V55.3139L13.0972 54.826V45.0889L21.6039 40.1885L30.2167 45.0889V54.826L29.3257 55.3139V50.6893L26.8861 48.568V56.714L26.0376 57.1383V47.8679L22.1555 44.2616Z" fill="#1521CF"/>
<path d="M39.6265 46.3164V47.1056H37.1233V48.8451H39.075V49.6343H37.1233V52.2139H36.1559V46.3164H39.6265ZM41.4819 46.3164V50.0755C41.4819 50.5224 41.5978 50.859 41.8298 51.0853C42.0674 51.3116 42.3955 51.4247 42.8141 51.4247C43.2384 51.4247 43.5665 51.3116 43.7984 51.0853C44.036 50.859 44.1548 50.5224 44.1548 50.0755V46.3164H45.1221V50.0586C45.1221 50.5394 45.0175 50.9467 44.8082 51.2805C44.5989 51.6142 44.3188 51.8631 43.9681 52.0272C43.6174 52.1912 43.2299 52.2733 42.8056 52.2733C42.3813 52.2733 41.9938 52.1912 41.6431 52.0272C41.298 51.8631 41.0236 51.6142 40.82 51.2805C40.6163 50.9467 40.5145 50.5394 40.5145 50.0586V46.3164H41.4819ZM50.1916 46.3164V47.1056H48.6218V52.2139H47.6545V47.1056H46.0762V46.3164H50.1916ZM52.1302 46.3164V50.0755C52.1302 50.5224 52.2461 50.859 52.4781 51.0853C52.7157 51.3116 53.0438 51.4247 53.4624 51.4247C53.8867 51.4247 54.2148 51.3116 54.4467 51.0853C54.6843 50.859 54.8031 50.5224 54.8031 50.0755V46.3164H55.7704V50.0586C55.7704 50.5394 55.6658 50.9467 55.4565 51.2805C55.2472 51.6142 54.9671 51.8631 54.6164 52.0272C54.2657 52.1912 53.8782 52.2733 53.4539 52.2733C53.0296 52.2733 52.6421 52.1912 52.2914 52.0272C51.9463 51.8631 51.6719 51.6142 51.4683 51.2805C51.2646 50.9467 51.1628 50.5394 51.1628 50.0586V46.3164H52.1302ZM60.0932 52.2139L58.7355 49.8549H57.9973V52.2139H57.0299V46.3164H59.0665C59.519 46.3164 59.9009 46.3956 60.212 46.554C60.5288 46.7124 60.7636 46.9246 60.9163 47.1905C61.0747 47.4563 61.1539 47.7533 61.1539 48.0814C61.1539 48.4661 61.0407 48.8168 60.8145 49.1336C60.5938 49.4448 60.2516 49.6569 59.7877 49.77L61.2472 52.2139H60.0932ZM57.9973 49.0827H59.0665C59.4285 49.0827 59.7 48.9922 59.8811 48.8112C60.0677 48.6302 60.1611 48.3869 60.1611 48.0814C60.1611 47.776 60.0706 47.5384 59.8895 47.3686C59.7085 47.1933 59.4342 47.1056 59.0665 47.1056H57.9973V49.0827ZM63.3587 47.0971V48.8282H65.3952V49.6173H63.3587V51.4247H65.6498V52.2139H62.3914V46.308H65.6498V47.0971H63.3587ZM69.9979 49.1845C70.3147 49.2411 70.5834 49.408 70.804 49.6852C71.0246 49.9624 71.135 50.2763 71.135 50.6271C71.135 50.9269 71.0558 51.1984 70.8974 51.4417C70.7446 51.6793 70.5212 51.8688 70.227 52.0102C69.9328 52.146 69.5906 52.2139 69.2003 52.2139H66.8413V46.3164H69.0899C69.4916 46.3164 69.8367 46.3843 70.1252 46.5201C70.4137 46.6559 70.6315 46.8397 70.7786 47.0717C70.9256 47.2979 70.9992 47.5525 70.9992 47.8354C70.9992 48.1748 70.9087 48.4576 70.7277 48.6839C70.5466 48.9102 70.3034 49.0771 69.9979 49.1845ZM67.8086 48.7942H69.0051C69.3219 48.7942 69.568 48.7235 69.7433 48.5821C69.9244 48.435 70.0149 48.2257 70.0149 47.9541C70.0149 47.6883 69.9244 47.4818 69.7433 47.3347C69.568 47.182 69.3219 47.1056 69.0051 47.1056H67.8086V48.7942ZM69.1154 51.4247C69.4435 51.4247 69.7009 51.3455 69.8876 51.1871C70.0743 51.0287 70.1676 50.8081 70.1676 50.5253C70.1676 50.2367 70.0686 50.0076 69.8706 49.8379C69.6726 49.6682 69.4096 49.5834 69.0815 49.5834H67.8086V51.4247H69.1154ZM75.7416 51.0089H73.2723L72.848 52.2139H71.8383L73.9511 46.308H75.0712L77.1841 52.2139H76.1659L75.7416 51.0089ZM75.47 50.2198L74.5112 47.479L73.5438 50.2198H75.47ZM82.948 52.2139H81.9807L79.0702 47.8099V52.2139H78.1028V46.308H79.0702L81.9807 50.7034V46.308H82.948V52.2139ZM87.4683 52.2139L85.1857 49.5749V52.2139H84.2183V46.3164H85.1857V49.0063L87.4768 46.3164H88.6902L86.1276 49.2694L88.7326 52.2139H87.4683Z" fill="#1521CF"/>
</svg>
