<svg width="91" height="91" viewBox="0 0 91 91" fill="none" xmlns="http://www.w3.org/2000/svg">
<g clip-path="url(#clip0_48_365)">
<path d="M71.9643 4.08594H5.1072C2.291 4.08594 0 6.37693 0 9.19296V48.193C0 51.0092 2.291 53.3002 5.1072 53.3002H11.6071V50.5144H5.1072C3.82715 50.5144 2.78581 49.4731 2.78581 48.193V31.0145H74.2859V35.3787H77.0715V9.19296C77.0715 6.37693 74.7805 4.08594 71.9643 4.08594ZM74.2857 28.2288H2.78563V19.8718H74.2857V28.2288ZM74.2857 17.086H2.78563V9.19296C2.78563 7.91274 3.82698 6.87157 5.10702 6.87157H71.9641C73.2443 6.87157 74.2855 7.91291 74.2855 9.19296V17.086H74.2857Z" fill="#246ED0"/>
<path d="M85.894 37.7002H19.0369C16.2207 37.7002 13.9297 39.9912 13.9297 42.8074V81.8075C13.9297 84.6237 16.2207 86.9147 19.0369 86.9147H85.894C88.7102 86.9147 91.0012 84.6237 91.0012 81.8075V42.8074C91.0012 39.9912 88.7102 37.7002 85.894 37.7002ZM88.2156 81.8075C88.2156 83.0877 87.1742 84.1288 85.8942 84.1288H19.0369C17.7568 84.1288 16.7155 83.0875 16.7155 81.8075V42.8074C16.7155 41.5272 17.7568 40.486 19.0369 40.486H85.894C87.174 40.486 88.2154 41.5273 88.2154 42.8074V81.8075H88.2156Z" fill="#246ED0"/>
<path d="M33.151 60.4492H28.1367V64.1635H33.151V60.4492Z" fill="#246ED0"/>
<path d="M21.3555 55.9932V68.6217H39.9269V55.9932H21.3555ZM37.1413 65.8359H24.1413V58.7788H37.1413V65.8359Z" fill="#246ED0"/>
<path d="M82.1769 55.9932H76.6055V58.7788H82.1769V55.9932Z" fill="#246ED0"/>
<path d="M72.894 55.9932H43.1797V58.7788H72.894V55.9932Z" fill="#246ED0"/>
<path d="M63.6083 61.5645H43.1797V64.3501H63.6083V61.5645Z" fill="#246ED0"/>
<path d="M79.3939 69.2715C78.3074 69.2715 77.2508 69.5646 76.3287 70.1093C75.4302 69.5779 74.3836 69.2715 73.2662 69.2715C69.9381 69.2715 67.2305 71.9793 67.2305 75.3072C67.2305 78.6351 69.9383 81.3428 73.2662 81.3428C74.3836 81.3428 75.4302 81.0366 76.3287 80.505C77.2508 81.0498 78.3074 81.3428 79.3939 81.3428C82.722 81.3428 85.4296 78.6351 85.4296 75.3072C85.4296 71.9793 82.7218 69.2715 79.3939 69.2715ZM73.266 78.5572C71.4741 78.5572 70.0159 77.0993 70.0159 75.3072C70.0159 73.5151 71.4741 72.0571 73.266 72.0571C75.0579 72.0571 76.516 73.5151 76.516 75.3072C76.516 77.0993 75.0579 78.5572 73.266 78.5572ZM79.3939 78.5572C79.0674 78.5572 78.7469 78.5057 78.4402 78.4113C78.9867 77.5038 79.3018 76.4416 79.3018 75.3073C79.3018 74.173 78.9867 73.1109 78.4402 72.2034C78.7468 72.1092 79.0674 72.0575 79.3939 72.0575C81.1858 72.0575 82.644 73.5154 82.644 75.3075C82.644 77.0996 81.1858 78.5572 79.3939 78.5572Z" fill="#246ED0"/>
</g>
<defs>
<clipPath id="clip0_48_365">
<rect width="91" height="91" fill="white"/>
</clipPath>
</defs>
</svg>
