<svg width="91" height="95" viewBox="0 0 91 95" fill="none" xmlns="http://www.w3.org/2000/svg">
<path d="M33.3648 86.4502H21.2315C20.8293 86.4502 20.4435 86.61 20.1591 86.8944C19.8746 87.1788 19.7148 87.5646 19.7148 87.9669C19.7148 88.3691 19.8746 88.7549 20.1591 89.0393C20.4435 89.3237 20.8293 89.4835 21.2315 89.4835H33.3648C33.7671 89.4835 34.1529 89.3237 34.4373 89.0393C34.7217 88.7549 34.8815 88.3691 34.8815 87.9669C34.8815 87.5646 34.7217 87.1788 34.4373 86.8944C34.1529 86.61 33.7671 86.4502 33.3648 86.4502Z" fill="#246ED0"/>
<path d="M85.6917 28.8167H54.6V5.30833C54.5984 3.90095 54.0387 2.55166 53.0435 1.55649C52.0483 0.561325 50.699 0.00155559 49.2917 0H5.30833C3.90095 0.00155559 2.55166 0.561325 1.55649 1.55649C0.561325 2.55166 0.00155559 3.90095 0 5.30833V88.725C0.00155559 90.1324 0.561325 91.4817 1.55649 92.4768C2.55166 93.472 3.90095 94.0318 5.30833 94.0333H49.2917C50.699 94.0318 52.0483 93.472 53.0435 92.4768C54.0387 91.4817 54.5984 90.1324 54.6 88.725V66.7333H85.6917C87.099 66.7318 88.4483 66.172 89.4435 65.1768C90.4387 64.1817 90.9984 62.8324 91 61.425V34.125C90.9984 32.7176 90.4387 31.3683 89.4435 30.3732C88.4483 29.378 87.099 28.8182 85.6917 28.8167V28.8167ZM34.4568 3.03333L33.6984 6.06667H20.9016L20.1432 3.03333H34.4568ZM51.5667 88.725C51.5662 89.3282 51.3263 89.9066 50.8998 90.3331C50.4732 90.7596 49.8949 90.9995 49.2917 91H5.30833C4.70512 90.9995 4.12676 90.7596 3.70022 90.3331C3.27368 89.9066 3.03384 89.3282 3.03333 88.725V5.30833C3.03384 4.70512 3.27368 4.12676 3.70022 3.70022C4.12676 3.27368 4.70512 3.03384 5.30833 3.03333H17.0151L18.2455 7.95112C18.3275 8.27924 18.5168 8.57053 18.7834 8.77869C19.05 8.98685 19.3785 9.09995 19.7167 9.1H34.8833C35.2215 9.09995 35.55 8.98685 35.8166 8.77869C36.0832 8.57053 36.2725 8.27924 36.3545 7.95112L37.5849 3.03333H49.2917C49.8949 3.03384 50.4732 3.27368 50.8998 3.70022C51.3263 4.12676 51.5662 4.70512 51.5667 5.30833V88.725ZM54.6 51.5667H59.15V57.6333H54.6V51.5667ZM87.9667 61.425C87.9662 62.0282 87.7263 62.6066 87.2998 63.0331C86.8732 63.4597 86.2949 63.6995 85.6917 63.7H54.6V60.6667H60.6667C61.0689 60.6667 61.4547 60.5069 61.7391 60.2224C62.0235 59.938 62.1833 59.5522 62.1833 59.15V50.05C62.1833 49.6478 62.0235 49.262 61.7391 48.9776C61.4547 48.6931 61.0689 48.5333 60.6667 48.5333H54.6V43.9833H87.9667V61.425ZM87.9667 40.95H54.6V37.9167H87.9667V40.95ZM87.9667 34.8833H54.6V31.85H85.6917C86.2949 31.8505 86.8732 32.0903 87.2998 32.5169C87.7263 32.9434 87.9662 33.5218 87.9667 34.125V34.8833Z" fill="#246ED0"/>
<path d="M83.4167 48.5332H69.7667C69.3644 48.5332 68.9787 48.693 68.6942 48.9774C68.4098 49.2619 68.25 49.6476 68.25 50.0499C68.25 50.4521 68.4098 50.8379 68.6942 51.1223C68.9787 51.4067 69.3644 51.5665 69.7667 51.5665H83.4167C83.8189 51.5665 84.2047 51.4067 84.4891 51.1223C84.7735 50.8379 84.9333 50.4521 84.9333 50.0499C84.9333 49.6476 84.7735 49.2619 84.4891 48.9774C84.2047 48.693 83.8189 48.5332 83.4167 48.5332Z" fill="#246ED0"/>
<path d="M83.4167 53.083H69.7667C69.3644 53.083 68.9787 53.2428 68.6942 53.5272C68.4098 53.8117 68.25 54.1974 68.25 54.5997C68.25 55.0019 68.4098 55.3877 68.6942 55.6721C68.9787 55.9566 69.3644 56.1163 69.7667 56.1163H83.4167C83.8189 56.1163 84.2047 55.9566 84.4891 55.6721C84.7735 55.3877 84.9333 55.0019 84.9333 54.5997C84.9333 54.1974 84.7735 53.8117 84.4891 53.5272C84.2047 53.2428 83.8189 53.083 83.4167 53.083Z" fill="#246ED0"/>
<path d="M83.4154 57.6338H77.3487C76.9465 57.6338 76.5607 57.7936 76.2763 58.078C75.9918 58.3624 75.832 58.7482 75.832 59.1505C75.832 59.5527 75.9918 59.9385 76.2763 60.2229C76.5607 60.5073 76.9465 60.6671 77.3487 60.6671H83.4154C83.8176 60.6671 84.2034 60.5073 84.4878 60.2229C84.7722 59.9385 84.932 59.5527 84.932 59.1505C84.932 58.7482 84.7722 58.3624 84.4878 58.078C84.2034 57.7936 83.8176 57.6338 83.4154 57.6338Z" fill="#246ED0"/>
<path d="M27.3016 28.8164C23.702 28.8164 20.1832 29.8838 17.1902 31.8837C14.1972 33.8835 11.8645 36.726 10.487 40.0516C9.10945 43.3772 8.74903 47.0366 9.45128 50.567C10.1535 54.0975 11.8869 57.3404 14.4322 59.8858C16.9775 62.4311 20.2205 64.1644 23.7509 64.8667C27.2814 65.569 30.9408 65.2085 34.2664 63.831C37.592 62.4535 40.4345 60.1208 42.4343 57.1278C44.4342 54.1348 45.5016 50.616 45.5016 47.0164C45.4962 42.1911 43.5769 37.565 40.1649 34.153C36.7529 30.7411 32.1268 28.8218 27.3016 28.8164V28.8164ZM27.3016 62.1831C24.3019 62.1831 21.3696 61.2936 18.8754 59.627C16.3813 57.9605 14.4373 55.5918 13.2894 52.8204C12.1415 50.0491 11.8411 46.9996 12.4263 44.0575C13.0115 41.1155 14.456 38.413 16.5771 36.292C18.6982 34.1709 21.4007 32.7264 24.3427 32.1412C27.2847 31.556 30.3343 31.8563 33.1056 33.0042C35.8769 34.1522 38.2457 36.0961 39.9122 38.5903C41.5787 41.0844 42.4682 44.0167 42.4682 47.0164C42.4637 51.0375 40.8643 54.8925 38.021 57.7358C35.1777 60.5791 31.3226 62.1785 27.3016 62.1831Z" fill="#246ED0"/>
<path d="M35.3268 41.3944L25.6402 51.081L20.6259 47.3202C20.3041 47.0789 19.8996 46.9753 19.5014 47.0321C19.1032 47.089 18.7439 47.3018 18.5026 47.6236C18.2612 47.9454 18.1576 48.3499 18.2145 48.7481C18.2714 49.1463 18.4841 49.5056 18.8059 49.7469L24.8726 54.2969C25.1646 54.516 25.5259 54.6223 25.8901 54.5964C26.2543 54.5706 26.5969 54.4142 26.855 54.156L37.4717 43.5394C37.7561 43.2549 37.9159 42.8692 37.9159 42.4669C37.9159 42.0646 37.7561 41.6789 37.4717 41.3944C37.1873 41.11 36.8015 40.9502 36.3992 40.9502C35.997 40.9502 35.6112 41.11 35.3268 41.3944V41.3944Z" fill="#246ED0"/>
</svg>
