<svg width="91" height="80" viewBox="0 0 91 80" fill="none" xmlns="http://www.w3.org/2000/svg">
<path d="M7.29055 33.9642C7.76417 34.1537 8.31345 34.1537 8.78708 33.9264L23.5814 27.2017C24.5285 26.7471 24.9263 25.6105 24.4717 24.6634C24.036 23.7542 22.9563 23.3374 22.028 23.7542L11.6663 28.4709C16.6104 13.6766 30.3818 3.78849 46.2368 3.78849C62.8497 3.78849 77.3787 14.889 81.565 30.7819C81.8301 31.7858 82.872 32.3921 83.8759 32.1267C84.8798 31.8616 85.4861 30.8197 85.2208 29.8158C80.5987 12.2749 64.5732 0 46.2367 0C28.7526 0 13.5415 10.911 8.04814 27.2397L3.69137 16.3477C3.3694 15.3626 2.28967 14.8133 1.30459 15.1353C0.319506 15.4573 -0.229774 16.537 0.0921936 17.5221C0.111195 17.5979 0.149022 17.6736 0.186848 17.7494L6.22964 32.9035C6.41912 33.3771 6.79792 33.7749 7.29055 33.9642Z" fill="#246ED0"/>
<path d="M90.8834 61.9234C90.8644 61.8856 90.8456 61.8476 90.8456 61.8097L84.8028 46.6556C84.6133 46.182 84.2345 45.7842 83.7421 45.5949C83.2684 45.4054 82.7192 45.4244 82.2455 45.6327L67.4512 52.3574C66.4851 52.7552 66.0305 53.8728 66.4283 54.8389C66.8261 55.805 67.9437 56.2596 68.9097 55.8618C68.9476 55.8428 68.9856 55.824 69.0234 55.805L79.3851 51.0882C74.4033 65.8825 60.6128 75.7706 44.7768 75.7706C28.1639 75.7706 13.6349 64.6701 9.44865 48.7773C9.18351 47.7734 8.1416 47.1671 7.1377 47.4324C6.13379 47.6975 5.52751 48.7394 5.79283 49.7433C10.3959 67.3032 26.4405 79.5591 44.777 79.5591C62.261 79.5591 77.4531 68.6481 82.9655 52.3194L87.3222 63.2114C87.6822 64.1965 88.7619 64.708 89.7468 64.348C90.7318 63.9882 91.2432 62.9085 90.8834 61.9234Z" fill="#246ED0"/>
</svg>
