<svg width="146" height="51" viewBox="0 0 146 51" fill="none" xmlns="http://www.w3.org/2000/svg">
<path d="M22.4646 15.2689V49.7302L43.0081 38.2823V13.4262L21.4452 0.958984L0 13.5046V38.2823L20.5435 49.7302V15.2689L13.4082 21.9337V39.0664L11.8008 38.2823V23.1883L7.25295 27.148V35.6947L5.72395 34.793V16.7979L21.4452 7.74148L37.3625 16.7979V34.793L35.7159 35.6947V27.148L31.2073 23.2275V38.2823L29.6391 39.0664V21.9337L22.4646 15.2689Z" fill="#1521CF"/>
<path d="M54.7542 19.4447V20.9031H50.128V24.118H53.7348V25.5764H50.128V30.3438H48.3402V19.4447H54.7542ZM58.183 19.4447V26.3919C58.183 27.2178 58.3974 27.8398 58.826 28.258C59.2651 28.6762 59.8715 28.8853 60.6451 28.8853C61.4292 28.8853 62.0356 28.6762 62.4642 28.258C62.9033 27.8398 63.1229 27.2178 63.1229 26.3919V19.4447H64.9106V26.3605C64.9106 27.2492 64.7172 28.0019 64.3304 28.6187C63.9436 29.2356 63.4261 29.6956 62.7779 29.9987C62.1297 30.3019 61.4135 30.4535 60.6294 30.4535C59.8453 30.4535 59.1292 30.3019 58.481 29.9987C57.8433 29.6956 57.3362 29.2356 56.9598 28.6187C56.5835 28.0019 56.3953 27.2492 56.3953 26.3605V19.4447H58.183ZM74.2796 19.4447V20.9031H71.3784V30.3438H69.5906V20.9031H66.6738V19.4447H74.2796ZM77.8622 19.4447V26.3919C77.8622 27.2178 78.0765 27.8398 78.5051 28.258C78.9442 28.6762 79.5506 28.8853 80.3243 28.8853C81.1084 28.8853 81.7147 28.6762 82.1434 28.258C82.5825 27.8398 82.802 27.2178 82.802 26.3919V19.4447H84.5898V26.3605C84.5898 27.2492 84.3964 28.0019 84.0096 28.6187C83.6227 29.2356 83.1052 29.6956 82.457 29.9987C81.8088 30.3019 81.0927 30.4535 80.3086 30.4535C79.5245 30.4535 78.8083 30.3019 78.1601 29.9987C77.5224 29.6956 77.0154 29.2356 76.639 28.6187C76.2626 28.0019 76.0744 27.2492 76.0744 26.3605V19.4447H77.8622ZM92.5787 30.3438L90.0696 25.9841H88.7052V30.3438H86.9175V19.4447H90.6812C91.5175 19.4447 92.2232 19.5911 92.7982 19.8838C93.3837 20.1765 93.8176 20.5686 94.0999 21.06C94.3926 21.5513 94.539 22.1002 94.539 22.7066C94.539 23.4175 94.3299 24.0657 93.9117 24.6512C93.5039 25.2262 92.8714 25.6182 92.0141 25.8273L94.7115 30.3438H92.5787ZM88.7052 24.5571H90.6812C91.3503 24.5571 91.8521 24.3898 92.1866 24.0552C92.5317 23.7207 92.7042 23.2711 92.7042 22.7066C92.7042 22.142 92.5369 21.7029 92.2023 21.3893C91.8678 21.0652 91.3607 20.9031 90.6812 20.9031H88.7052V24.5571ZM98.6137 20.8875V24.0866H102.377V25.545H98.6137V28.8853H102.848V30.3438H96.826V19.429H102.848V20.8875H98.6137ZM110.884 24.7453C111.469 24.8498 111.966 25.1582 112.373 25.6705C112.781 26.1828 112.985 26.763 112.985 27.4112C112.985 27.9653 112.839 28.4671 112.546 28.9167C112.264 29.3558 111.851 29.706 111.307 29.9674C110.763 30.2183 110.131 30.3438 109.409 30.3438H105.05V19.4447H109.206C109.948 19.4447 110.586 19.5702 111.119 19.8211C111.652 20.072 112.055 20.4118 112.326 20.8404C112.598 21.2586 112.734 21.7291 112.734 22.2518C112.734 22.8791 112.567 23.4018 112.232 23.82C111.898 24.2382 111.448 24.5466 110.884 24.7453ZM106.838 24.0239H109.049C109.634 24.0239 110.089 23.8932 110.413 23.6318C110.748 23.36 110.915 22.9732 110.915 22.4714C110.915 21.98 110.748 21.5984 110.413 21.3266C110.089 21.0443 109.634 20.9031 109.049 20.9031H106.838V24.0239ZM109.253 28.8853C109.859 28.8853 110.335 28.739 110.68 28.4462C111.025 28.1535 111.197 27.7458 111.197 27.223C111.197 26.6898 111.014 26.2664 110.648 25.9528C110.282 25.6391 109.796 25.4823 109.19 25.4823H106.838V28.8853H109.253ZM121.498 28.1169H116.935L116.151 30.3438H114.285L118.19 19.429H120.26L124.164 30.3438H122.283L121.498 28.1169ZM120.997 26.6585L119.225 21.5932L117.437 26.6585H120.997ZM134.817 30.3438H133.029L127.65 22.2048V30.3438H125.862V19.429H127.65L133.029 27.5523V19.429H134.817V30.3438ZM143.171 30.3438L138.952 25.4666V30.3438H137.164V19.4447H138.952V24.4159L143.186 19.4447H145.429L140.693 24.9021L145.507 30.3438H143.171Z" fill="#1521CF"/>
</svg>
