<svg width="59" height="59" viewBox="0 0 59 59" fill="none" xmlns="http://www.w3.org/2000/svg">
<g clip-path="url(#clip0_48_193)">
<path d="M15.9039 42.0029C11.546 42.1838 11.5493 48.392 15.9039 48.5713H24.8922C29.2501 48.3904 29.2468 42.1822 24.8922 42.0029H15.9039ZM26.4479 45.2871C26.4479 46.1449 25.75 46.8428 24.8922 46.8428H15.9039C13.8396 46.7572 13.8412 43.8163 15.9039 43.7314H24.8922C25.75 43.7314 26.4479 44.4293 26.4479 45.2871Z" fill="black"/>
<path d="M53.2818 9.16113H48.8824C47.738 9.20077 47.7389 10.8505 48.8824 10.8896H53.2818C54.0526 10.8896 54.6797 11.5166 54.6797 12.2876V35.4195C54.6797 36.1903 54.0527 36.8174 53.2818 36.8174H13.5561C12.7853 36.8174 12.1582 36.1904 12.1582 35.4195V34.2622H21.4346C26.5571 34.0495 26.5532 26.7522 21.4346 26.5415H12.1582V12.2876C12.1582 11.5168 12.7852 10.8896 13.5561 10.8896H44.8198C45.9642 10.85 45.9632 9.20031 44.8198 9.16113H38.2012V5.47363C38.2012 2.45553 35.7456 0 32.7275 0H8.06738C5.04928 0 2.59375 2.45553 2.59375 5.47363V10.4332C2.63339 11.5776 4.28309 11.5767 4.32227 10.4332V5.47363C4.32227 3.40852 6.00227 1.72852 8.06738 1.72852H32.7275C34.7927 1.72852 36.4727 3.40852 36.4727 5.47363V9.16113H35.2051V5.47363C35.2051 4.10753 34.0936 2.99609 32.7275 2.99609H28.1066C27.4696 2.99609 26.9019 3.40045 26.6935 4.00336L26.1398 5.61422H14.6549L14.1007 4.0022C13.8928 3.40045 13.3252 2.99621 12.6881 2.99621H8.06738C6.70128 2.99621 5.58984 4.10764 5.58984 5.47375V53.5265C5.58984 54.8926 6.70128 56.004 8.06738 56.004H32.7275C34.0936 56.004 35.2051 54.8926 35.2051 53.5265V50.8242C35.1654 49.6798 33.5157 49.6808 33.4766 50.8242V53.5265C33.4766 53.9395 33.1405 54.2755 32.7275 54.2755H8.06738C7.65438 54.2755 7.31836 53.9395 7.31836 53.5265V5.47375C7.31836 5.06075 7.65438 4.72472 8.06738 4.72472H12.5214L13.0756 6.33662C13.2834 6.93849 13.851 7.34273 14.4882 7.34273H26.3067C26.9438 7.34273 27.5116 6.93838 27.7198 6.33547L28.2735 4.72461H32.7275C33.1405 4.72461 33.4766 5.06063 33.4766 5.47363V9.16113H13.5561C11.8322 9.16113 10.4297 10.5637 10.4297 12.2876V35.4195C10.4297 37.1434 11.8322 38.5459 13.5561 38.5459H33.4766V46.7936C33.5162 47.938 35.1659 47.937 35.2051 46.7936V38.5459H36.4727V53.5264C36.4727 55.5915 34.7927 57.2715 32.7275 57.2715H8.06738C6.00227 57.2715 4.32227 55.5915 4.32227 53.5264V14.5195C4.28262 13.3751 2.63293 13.3761 2.59375 14.5195V53.5264C2.59375 56.5445 5.04928 59 8.06738 59H32.7275C35.7456 59 38.2012 56.5445 38.2012 53.5264V38.5459H53.2818C55.0057 38.5459 56.4082 37.1434 56.4082 35.4195V12.2876C56.4082 10.5637 55.0057 9.16113 53.2818 9.16113ZM21.4346 28.27C24.2635 28.3874 24.2613 32.4173 21.4346 32.5337H12.1582V28.27H21.4346Z" fill="black"/>
<path d="M40.01 34.5419C40.4558 34.712 40.9554 34.488 41.1253 34.0419L41.5366 32.962H44.3647L44.7714 34.0395C44.9394 34.4906 45.4502 34.7105 45.8851 34.5429C46.3316 34.3744 46.557 33.8758 46.3884 33.4291L43.9085 26.8577C43.9056 26.8497 43.9024 26.8417 43.8991 26.8338C43.7418 26.4518 43.3734 26.2051 42.9603 26.2051H42.9589C42.5453 26.2055 42.1769 26.4533 42.0204 26.8363C42.0177 26.8428 42.0152 26.8491 42.0128 26.8556L39.51 33.4267C39.34 33.8727 39.564 34.372 40.01 34.5419ZM42.9571 29.2323L43.7123 31.2334H42.1949L42.9571 29.2323Z" fill="black"/>
<path d="M47.9019 30.5862L47.8941 33.7323C47.893 34.2097 48.279 34.5976 48.7562 34.5987H48.7584C49.2348 34.5987 49.6215 34.2132 49.6227 33.7367L49.6304 30.5873L51.6025 27.5578C51.8629 27.1577 51.7498 26.6224 51.3498 26.362C50.9498 26.1014 50.4143 26.2146 50.154 26.6147L48.7657 28.7474L47.3615 26.5969C47.1003 26.1971 46.5652 26.085 46.1653 26.3457C45.7657 26.6067 45.6532 27.1421 45.9141 27.5419L47.9019 30.5862Z" fill="black"/>
<path d="M34.6213 33.7345C34.6609 34.8789 36.3106 34.878 36.3498 33.7345V31.699C36.7148 31.6972 37.1101 31.6956 37.3413 31.6956C41.0324 31.5441 41.0306 26.3558 37.3413 26.2052H35.4856C35.0202 26.196 34.6107 26.6071 34.6213 27.0721V33.7345ZM37.3413 27.9337C37.9123 27.9337 38.3948 28.3993 38.3948 28.9503C38.3948 29.5014 37.9123 29.9669 37.3413 29.9669C37.1116 29.9669 36.721 29.9686 36.358 29.9704C36.3534 29.1129 36.355 28.817 36.3523 27.9336H37.3413V27.9337Z" fill="black"/>
<path d="M17.1729 13.6553C16.315 13.6553 15.6172 14.3531 15.6172 15.2109V19.8203C15.6172 20.6781 16.315 21.376 17.1729 21.376H24.3174C25.1752 21.376 25.873 20.6781 25.873 19.8203V15.2109C25.873 14.3531 25.1752 13.6553 24.3174 13.6553H17.1729ZM24.1445 19.6475H17.3457V15.3838H24.1445V19.6475Z" fill="black"/>
<path d="M31.5625 16.6021V17.9849C31.6021 19.1293 33.2518 19.1284 33.291 17.9849V16.6021C33.2515 15.4577 31.6017 15.4586 31.5625 16.6021Z" fill="black"/>
<path d="M46.6846 18.8492C47.162 18.8492 47.5488 18.4623 47.5488 17.9849V16.6021C47.5092 15.4577 45.8595 15.4586 45.8203 16.6021V17.9849C45.8203 18.4623 46.2073 18.8492 46.6846 18.8492Z" fill="black"/>
<path d="M50.627 17.9849V16.6021C50.5873 15.4577 48.9376 15.4586 48.8984 16.6021V17.9849C48.938 19.1293 50.5878 19.1285 50.627 17.9849Z" fill="black"/>
<path d="M37.7676 17.9849V16.6021C37.7279 15.4577 36.0782 15.4586 36.0391 16.6021V17.9849C36.0786 19.1293 37.7284 19.1285 37.7676 17.9849Z" fill="black"/>
<path d="M40.1689 18.8492C40.6464 18.8492 41.0332 18.4623 41.0332 17.9849V16.6021C40.9936 15.4577 39.3439 15.4586 39.3047 16.6021V17.9849C39.3047 18.4623 39.6915 18.8492 40.1689 18.8492Z" fill="black"/>
</g>
<defs>
<clipPath id="clip0_48_193">
<rect width="59" height="59" fill="white"/>
</clipPath>
</defs>
</svg>
