<svg width="61" height="91" viewBox="0 0 61 91" fill="none" xmlns="http://www.w3.org/2000/svg">
<path d="M30.4967 67.5159C39.4134 67.5159 46.6419 60.2875 46.6419 51.3707C46.6419 42.454 39.4134 35.2256 30.4967 35.2256C21.58 35.2256 14.3516 42.454 14.3516 51.3707C14.3516 60.2875 21.58 67.5159 30.4967 67.5159Z" fill="#0057FF" fill-opacity="0.47"/>
<path d="M60.4986 22.4535L56.9159 14.6275V7.33871C56.9159 3.29215 53.6237 0 49.5771 0H11.4159C7.3693 0 4.07715 3.29215 4.07715 7.33871V14.6319L0.448895 22.5621C-0.279105 24.5656 -0.116186 26.7892 0.898024 28.6635C1.63336 30.0241 2.74151 31.0486 4.07715 31.6577V83.6613C4.07715 87.7079 7.3693 91 11.4159 91H49.5771C53.6237 91 56.9159 87.7079 56.9159 83.6613V31.6577C58.2515 31.0486 59.3596 30.0241 60.095 28.6635C61.1077 26.7892 61.2721 24.5656 60.4986 22.4535ZM11.4159 2.93548H49.5771C52.0048 2.93548 53.9804 4.91106 53.9804 7.33871V10.2742H7.01264V7.33871C7.01264 4.91106 8.98822 2.93548 11.4159 2.93548ZM53.9804 76.3226H7.01264V32.2903C9.41093 32.2903 11.5436 31.1337 12.8836 29.3504C14.2237 31.1337 16.3563 32.2903 18.7546 32.2903C21.1529 32.2903 23.2855 31.1337 24.6255 29.3504C25.9656 31.1337 28.0982 32.2903 30.4965 32.2903C32.8948 32.2903 35.0274 31.1337 36.3675 29.3504C37.7075 31.1337 39.8402 32.2903 42.2384 32.2903C44.6367 32.2903 46.7694 31.1337 48.1094 29.3504C49.4495 31.1337 51.5821 32.2903 53.9804 32.2903V76.3226ZM24.4538 13.2097L23.1666 24.7902L23.1651 24.9516H23.1578C23.1578 27.3793 21.1822 29.3548 18.7546 29.3548C16.3636 29.3548 14.4233 27.438 14.3631 25.0617L16.9962 13.2097H24.4538ZM33.5861 13.2097L34.8953 24.9942C34.8718 27.4027 32.9095 29.3548 30.4965 29.3548C28.0835 29.3548 26.1212 27.4027 26.0977 24.9942L27.4069 13.2097H33.5861ZM46.6299 25.0617C46.5697 27.438 44.6294 29.3548 42.2384 29.3548C39.8108 29.3548 37.8352 27.3793 37.8352 24.9516L36.5392 13.2097H43.9968L46.6299 25.0617ZM3.47978 27.2662C2.8648 26.1302 2.76646 24.7814 3.16275 23.6747L7.95493 13.2097H13.9888L11.4496 24.6331L11.4437 24.9516H11.4159C11.4159 27.3793 9.44028 29.3548 7.01264 29.3548C6.66919 29.3548 6.32867 29.3167 6.00283 29.2389C4.92698 28.9864 4.03165 28.2849 3.47978 27.2662ZM49.5771 88.0645H11.4159C8.98822 88.0645 7.01264 86.0889 7.01264 83.6613V79.2581H53.9804V83.6613C53.9804 86.0889 52.0048 88.0645 49.5771 88.0645ZM57.5132 27.2662C56.9614 28.2849 56.066 28.9864 54.9887 29.2389C54.6643 29.3167 54.3238 29.3548 53.9804 29.3548C51.5527 29.3548 49.5771 27.3793 49.5771 24.9516L46.9998 13.2097H53.0396L57.7862 23.5661C58.228 24.7814 58.1282 26.1302 57.5132 27.2662Z" fill="black"/>
<path d="M49.5754 70.4521H11.4141V73.3876H49.5754V70.4521Z" fill="black"/>
<path d="M39.3043 82.1934H21.6914V85.1288H39.3043V82.1934Z" fill="black"/>
<path d="M30.497 55.7741C29.6868 55.7741 29.0292 55.1165 29.0292 54.3064H26.0938C26.0938 56.2174 27.3252 57.8319 29.0292 58.4395V61.6451H31.9647V58.4395C33.6688 57.8319 34.9002 56.2174 34.9002 54.3064C34.9002 51.8787 32.9246 49.9031 30.497 49.9031C29.6868 49.9031 29.0292 49.2456 29.0292 48.4354C29.0292 47.6252 29.6868 46.9676 30.497 46.9676C31.3072 46.9676 31.9647 47.6252 31.9647 48.4354H34.9002C34.9002 46.5244 33.6688 44.9099 31.9647 44.3022V41.0967H29.0292V44.3022C27.3252 44.9099 26.0938 46.5244 26.0938 48.4354C26.0938 50.863 28.0693 52.8386 30.497 52.8386C31.3072 52.8386 31.9647 53.4962 31.9647 54.3064C31.9647 55.1165 31.3072 55.7741 30.497 55.7741Z" fill="black"/>
<path d="M40.7714 49.9033H37.8359V52.8388H40.7714V49.9033Z" fill="black"/>
<path d="M23.1581 49.9033H20.2227V52.8388H23.1581V49.9033Z" fill="black"/>
</svg>
