<svg width="62" height="91" viewBox="0 0 62 91" fill="none" xmlns="http://www.w3.org/2000/svg">
<path d="M60.8127 67.8405H51.3698C51.1319 67.8404 50.9003 67.9168 50.7092 68.0584C50.518 68.1999 50.3774 68.3991 50.308 68.6267L49.5276 71.1868C48.9586 70.9672 48.4337 70.6473 47.9778 70.2423L46.3938 68.8322C46.371 68.812 46.3475 68.7926 46.3233 68.7745C44.6083 67.4773 42.5677 66.6801 40.4275 66.4712C38.2874 66.2622 36.1311 66.6496 34.1976 67.5906L33.5414 67.9078C32.665 68.3303 31.7048 68.5504 30.7318 68.5517H26.0628L22.5713 66.6533C21.64 66.119 20.5716 65.8718 19.5002 65.9425C18.4289 66.0132 17.4023 66.3988 16.5492 67.0508L16.1119 66.8151C16.1036 66.8107 16.0955 66.8064 16.0871 66.8024C14.5148 66.0055 12.4837 66.4818 11.206 67.8148L11.1986 67.8109C10.0807 67.2057 8.77244 67.0551 7.54625 67.3904C6.32006 67.7257 5.27048 68.5211 4.61607 69.6109C4.47016 69.8533 4.42229 70.1422 4.48225 70.4187C4.54221 70.6951 4.70547 70.9383 4.93868 71.0984L21.4805 82.4563C21.5238 82.486 21.5691 82.5126 21.6162 82.5358C24.0624 83.7402 26.8296 84.1305 29.5135 83.6498L39.0752 81.8891C39.0987 81.885 39.1218 81.8799 39.1449 81.8741C39.7407 81.7233 40.3715 81.8033 40.9107 82.0983L45.346 84.9023L43.9241 89.5666C43.8735 89.7325 43.8625 89.9079 43.892 90.0789C43.9214 90.2498 43.9906 90.4114 44.0938 90.5508C44.197 90.6902 44.3314 90.8034 44.4863 90.8815C44.6412 90.9595 44.8123 91.0002 44.9857 91.0002H58.2591C58.5301 91.0002 58.7918 90.901 58.9948 90.7213C59.1978 90.5416 59.328 90.2939 59.3608 90.0248L61.9145 69.0849C61.9335 68.9289 61.9192 68.7707 61.8725 68.6207C61.8258 68.4707 61.7478 68.3324 61.6437 68.2148C61.5395 68.0971 61.4116 68.003 61.2684 67.9385C61.1251 67.874 60.9698 67.8407 60.8127 67.8407V67.8405ZM21.472 68.5804L21.4982 68.5952L22.1928 68.9728C21.8254 69.1208 21.474 69.3058 21.144 69.5249L18.8728 68.3029C19.3016 68.1653 19.7544 68.119 20.2022 68.167C20.65 68.2151 21.0827 68.3564 21.4725 68.5819L21.472 68.5804ZM15.0731 68.7754L19.505 71.1635C19.3216 71.4392 19.162 71.7301 19.028 72.0329L13.3104 68.9504C13.8757 68.6132 14.5542 68.5201 15.0731 68.7769V68.7754ZM42.0691 80.2047C42.0525 80.1939 42.0352 80.1836 42.0179 80.1739C40.9914 79.5975 39.7843 79.4322 38.6407 79.7115L29.1141 81.4653C26.9263 81.8571 24.6706 81.5471 22.6695 80.5796L7.22357 69.9742C7.63959 69.6643 8.13558 69.4797 8.65304 69.4424C9.1705 69.4051 9.68785 69.5165 10.1441 69.7636L18.0145 74.0094L18.5324 74.2823C18.5324 74.3193 18.5298 74.3546 18.5298 74.3912C18.5298 74.6856 18.6468 74.9679 18.8549 75.176C19.063 75.3842 19.3454 75.5011 19.6397 75.5011C19.6564 75.5011 19.6732 75.5011 19.69 75.5L25.1168 75.2545C26.6821 75.1838 28.2507 75.2562 29.8028 75.471C29.9472 75.491 30.0941 75.4823 30.2351 75.4455C30.3762 75.4088 30.5086 75.3446 30.6248 75.2566C30.741 75.1687 30.8388 75.0587 30.9125 74.9329C30.9862 74.8072 31.0345 74.6682 31.0545 74.5238C31.0745 74.3794 31.0658 74.2325 31.029 74.0915C30.9923 73.9504 30.9281 73.818 30.8401 73.7018C30.7521 73.5855 30.6422 73.4878 30.5164 73.414C30.3907 73.3403 30.2516 73.2921 30.1073 73.2721C28.4211 73.039 26.7171 72.9604 25.0166 73.037L20.9436 73.222C21.1886 72.5077 21.6504 71.8876 22.2647 71.4484C22.8789 71.0091 23.6149 70.7726 24.3701 70.7717H30.7323C32.0399 70.7699 33.3304 70.4742 34.5083 69.9064L35.1645 69.5891C36.7243 68.8301 38.4631 68.5157 40.19 68.6802C41.9168 68.8448 43.5649 69.482 44.9533 70.522L46.5024 71.9008C47.198 72.5184 48.005 72.9976 48.8801 73.313L46.0179 82.7006L42.0691 80.2047ZM57.2762 88.7804H46.4844L52.1917 70.0603H59.5591L57.2762 88.7804Z" fill="#246ED0"/>
<path d="M11.7252 34.3267V32.3513H12.8089C13.4916 32.3517 14.1733 32.4033 14.8483 32.5054L11.6503 36.8661C9.42675 39.8831 8.2877 43.5629 8.41791 47.3086C8.54812 51.0542 9.93997 54.646 12.3677 57.5014C14.2133 59.6863 16.5138 61.4419 19.1084 62.6452C21.703 63.8486 24.5292 64.4708 27.3893 64.4683C30.2494 64.4707 33.0755 63.8485 35.6701 62.6451C38.2647 61.4417 40.5653 59.6863 42.4109 57.5014C44.8386 54.646 46.2304 51.0542 46.3606 47.3086C46.4908 43.5629 45.3518 39.8832 43.1283 36.8661L39.8998 32.4635C39.8998 32.4364 39.9039 32.4101 39.9039 32.3829C39.9043 31.6479 39.6876 30.9291 39.2808 30.3168C39.7766 30.0241 40.1984 29.6212 40.5136 29.1394C40.8288 28.6576 41.0291 28.1098 41.0988 27.5383C41.1685 26.9667 41.1059 26.3868 40.9158 25.8434C40.7256 25.2999 40.4131 24.8075 40.0023 24.4041C40.7144 23.6919 41.1178 22.7282 41.1256 21.7211C41.1334 20.714 40.7449 19.7443 40.0439 19.0211C40.4923 18.5834 40.8183 18.0358 40.9894 17.433C41.1605 16.8301 41.1708 16.193 41.0192 15.5849C40.8676 14.9769 40.5594 14.4191 40.1253 13.9672C39.6911 13.5152 39.1463 13.1848 38.5448 13.0089C40.3334 12.0366 41.4264 9.98107 41.4264 7.30124V7.1995C41.4264 6.90514 41.3095 6.62284 41.1014 6.41469C40.8932 6.20655 40.6109 6.08962 40.3165 6.08962H36.7782C37.2558 4.91653 37.8113 3.77666 38.4408 2.67763C38.5868 2.42265 38.6636 2.13393 38.6635 1.84013C38.6634 1.54632 38.5865 1.25764 38.4405 1.00272C38.2944 0.747804 38.0842 0.535514 37.8307 0.386914C37.5773 0.238314 37.2894 0.158569 36.9956 0.155592L22.2675 0.000577383C22.0313 -0.00559525 21.7965 0.0377825 21.5781 0.127916C21.3597 0.218049 21.1626 0.352937 20.9995 0.52389C20.7536 0.789215 20.6023 1.12826 20.5688 1.48842C20.5354 1.84858 20.6217 2.20971 20.8145 2.51577L21.5093 3.61845C22.0079 4.41373 22.4566 5.23923 22.8528 6.09017H21.8965C17.9839 6.09017 17.0179 8.9905 16.4989 10.5482C16.4175 10.8151 16.32 11.0767 16.207 11.3318C15.0532 12.0377 14.0013 12.381 12.9938 12.381H11.7252V10.0044C11.7252 9.71002 11.6083 9.42772 11.4002 9.21957C11.192 9.01143 10.9097 8.89449 10.6154 8.89449H1.10989C0.815528 8.89449 0.533224 9.01143 0.32508 9.21957C0.116935 9.42772 0 9.71002 0 10.0044V34.3267C0 34.621 0.116935 34.9033 0.32508 35.1115C0.533224 35.3196 0.815528 35.4366 1.10989 35.4366H10.6154C10.9097 35.4366 11.192 35.3196 11.4002 35.1115C11.6083 34.9033 11.7252 34.621 11.7252 34.3267ZM41.338 38.1789C43.2654 40.7943 44.2527 43.9841 44.1398 47.231C44.0269 50.4779 42.8205 53.5914 40.7161 56.0666C39.0773 58.0035 37.036 59.5598 34.7343 60.6273C32.4327 61.6948 29.9261 62.2478 27.3889 62.2478C24.8518 62.2478 22.3451 61.6948 20.0435 60.6273C17.7419 59.5598 15.7006 58.0035 14.0617 56.0666C11.9574 53.5914 10.7509 50.4779 10.638 47.231C10.5252 43.9841 11.5126 40.7943 13.44 38.1789L17.1855 33.0714C18.1295 33.3901 19.0358 33.8109 19.8885 34.3263C17.1569 36.633 17.3159 40.2121 17.8731 41.9764C17.9629 42.2557 18.1596 42.488 18.4202 42.6227C18.6808 42.7574 18.9842 42.7834 19.2639 42.6951C19.5436 42.6067 19.777 42.4113 19.9131 42.1514C20.0491 41.8915 20.0767 41.5883 19.9898 41.3081C19.7901 40.5567 19.7266 39.7755 19.8025 39.0017C19.8596 38.2463 20.1125 37.5187 20.5363 36.8907C20.9601 36.2627 21.5401 35.7558 22.2192 35.4201C24.1871 36.0646 26.2763 36.1371 28.4126 36.1371H30.9988L31.263 36.6138C32.2543 38.4003 32.7092 40.4349 32.573 42.4735L32.5507 42.8133C32.541 42.9587 32.5602 43.1046 32.6069 43.2427C32.6537 43.3807 32.7272 43.5082 32.8232 43.6178C32.9193 43.7275 33.036 43.8171 33.1666 43.8817C33.2973 43.9462 33.4394 43.9844 33.5849 43.994C33.6097 43.9957 33.6345 43.9964 33.6589 43.9964C33.9403 43.9961 34.211 43.889 34.4164 43.6967C34.6218 43.5044 34.7465 43.2413 34.7653 42.9605L34.7878 42.6207C34.9336 40.4318 34.5156 38.242 33.5738 36.2607C34.2147 36.5048 36.1574 37.5626 36.5254 41.4701C36.5512 41.7451 36.6786 42.0005 36.8828 42.1865C37.0869 42.3725 37.353 42.4757 37.6291 42.476C37.6639 42.476 37.6992 42.4744 37.7346 42.4711C38.0276 42.4435 38.2977 42.3006 38.4854 42.0738C38.6732 41.8471 38.7631 41.5551 38.7355 41.262C38.5024 38.7879 37.7335 37.1502 36.8672 36.0672C37.6634 35.91 38.3874 35.4994 38.9309 34.8966L41.338 38.1789ZM39.1306 8.30939C38.9344 9.60279 38.2573 11.4073 36.0087 11.4073H35.2007C35.4028 10.3608 35.6634 9.32647 35.9815 8.30921H39.1306V8.30939ZM24.156 2.23978C24.1965 2.26329 24.2385 2.28423 24.2816 2.30249C26.0326 3.02836 27.4402 5.29697 27.1858 6.97771C27.1589 7.13698 27.1671 7.30021 27.2097 7.456C27.2524 7.61179 27.3286 7.75638 27.433 7.87968C27.5373 8.00299 27.6673 8.10203 27.8139 8.16989C27.9605 8.23775 28.1201 8.2728 28.2816 8.27258C28.546 8.27224 28.8016 8.17755 29.0023 8.00555C29.2031 7.83355 29.3359 7.59554 29.3767 7.33436C29.642 5.64215 28.9831 3.74146 27.7859 2.27752L31.2941 2.31451C30.9202 3.40128 30.5924 4.92146 30.8762 6.49676C30.9223 6.75274 31.0568 6.98441 31.2563 7.15132C31.4557 7.31823 31.7075 7.40979 31.9676 7.41001C32.0781 7.4099 32.188 7.3935 32.2937 7.36136C32.5556 7.27473 32.7771 7.09601 32.9172 6.85837C33.0573 6.62074 33.1063 6.34034 33.0553 6.06927C32.8004 4.58664 33.3316 3.09328 33.6683 2.33948L36.0762 2.36483C34.4415 5.42064 33.3388 8.73244 32.8155 12.1583L32.6936 12.9506L27.9304 13.039C27.8133 13.0288 27.6995 12.9951 27.5957 12.94C27.4919 12.8849 27.4003 12.8095 27.3262 12.7182C26.6583 8.99268 25.2768 5.43126 23.2577 2.22979L24.156 2.23978ZM11.7252 14.6006H12.9938C14.4552 14.6006 15.9215 14.1287 17.4741 13.1578C18.0995 12.7669 18.3337 12.0636 18.6051 11.2493C19.1785 9.52787 19.7501 8.30921 21.8965 8.30921H23.7722C24.1693 9.4006 24.5025 10.5184 24.7905 11.6503V12.1433C24.7905 12.1836 24.7927 12.2238 24.7971 12.2637C24.9773 13.9153 26.3865 15.259 27.9383 15.259H27.9589L37.5409 15.081C37.9054 15.0822 38.2545 15.2281 38.5115 15.4867C38.7684 15.7453 38.9121 16.0954 38.9109 16.4599C38.9097 16.8244 38.7638 17.1735 38.5052 17.4304C38.2466 17.6873 37.8965 17.831 37.532 17.8298L33.6206 17.8419C33.3262 17.8419 33.0439 17.9588 32.8358 18.1669C32.6276 18.3751 32.5107 18.6574 32.5107 18.9518C32.5107 19.2461 32.6276 19.5284 32.8358 19.7366C33.0439 19.9447 33.3262 20.0616 33.6206 20.0616H37.278C37.7099 20.0616 38.1241 20.2332 38.4294 20.5386C38.7348 20.8439 38.9063 21.2581 38.9063 21.6899C38.9063 22.1218 38.7348 22.536 38.4294 22.8413C38.1241 23.1467 37.7099 23.3182 37.278 23.3182H33.6215C33.3272 23.3182 33.0448 23.4352 32.8367 23.6433C32.6286 23.8515 32.5116 24.1338 32.5116 24.4281C32.5116 24.7225 32.6286 25.0048 32.8367 25.2129C33.0448 25.4211 33.3272 25.538 33.6215 25.538H37.3609C37.7679 25.5425 38.1567 25.7073 38.4429 25.9967C38.7292 26.286 38.8897 26.6766 38.8897 27.0836C38.8897 27.4907 38.7292 27.8812 38.4429 28.1706C38.1567 28.46 37.7679 28.6248 37.3609 28.6292H31.9687C31.6743 28.6292 31.392 28.7462 31.1839 28.9543C30.9757 29.1625 30.8588 29.4448 30.8588 29.7391C30.8588 30.0335 30.9757 30.3158 31.1839 30.5239C31.392 30.7321 31.6743 30.849 31.9687 30.849H36.1493C36.5533 30.8535 36.9393 31.0171 37.2234 31.3043C37.5075 31.5916 37.6669 31.9793 37.6669 32.3834C37.6669 32.7874 37.5075 33.1751 37.2234 33.4624C36.9393 33.7496 36.5533 33.9132 36.1493 33.9177H28.4126C25.6952 33.9177 23.2766 33.8126 21.1957 32.5216C18.6776 30.9587 15.7726 30.1308 12.8089 30.1315H11.7252V14.6006ZM9.50546 33.2168H2.21978V11.1143H9.50546V33.2168Z" fill="#246ED0"/>
<path d="M27.9393 47.4636C28.3111 47.464 28.6676 47.6118 28.9306 47.8747C29.1935 48.1376 29.3414 48.4941 29.3418 48.866C29.3418 49.1603 29.4587 49.4426 29.6669 49.6508C29.875 49.8589 30.1573 49.9759 30.4517 49.9759C30.746 49.9759 31.0284 49.8589 31.2365 49.6508C31.4446 49.4426 31.5616 49.1603 31.5616 48.866C31.5603 48.0999 31.3165 47.3539 30.8652 46.735C30.4139 46.116 29.7781 45.6558 29.0492 45.4203V44.9741C29.0492 44.6798 28.9322 44.3975 28.7241 44.1893C28.5159 43.9812 28.2336 43.8643 27.9393 43.8643C27.6449 43.8643 27.3626 43.9812 27.1545 44.1893C26.9463 44.3975 26.8294 44.6798 26.8294 44.9741V45.4203C26.0075 45.6846 25.3071 46.2338 24.8544 46.9689C24.4018 47.704 24.2266 48.5767 24.3605 49.4295C24.4944 50.2824 24.9286 51.0594 25.5848 51.6204C26.241 52.1814 27.076 52.4895 27.9393 52.4892C28.1234 52.488 28.3059 52.5231 28.4765 52.5924C28.647 52.6617 28.8023 52.764 28.9333 52.8933C29.0644 53.0226 29.1687 53.1765 29.2402 53.3461C29.3118 53.5158 29.3493 53.6978 29.3505 53.8819C29.3517 54.066 29.3166 54.2486 29.2473 54.4192C29.178 54.5897 29.0757 54.7449 28.9464 54.876C28.8171 55.007 28.6632 55.1113 28.4936 55.1829C28.3239 55.2545 28.1419 55.2919 27.9578 55.2932C27.9517 55.2932 27.9459 55.2932 27.9393 55.2932C27.9326 55.2932 27.9276 55.2932 27.9208 55.2932C27.5522 55.2882 27.2003 55.1383 26.9413 54.8761C26.6822 54.6138 26.5367 54.2602 26.5362 53.8916C26.5362 53.5972 26.4193 53.3149 26.2111 53.1067C26.003 52.8986 25.7207 52.7817 25.4263 52.7817C25.1319 52.7817 24.8496 52.8986 24.6415 53.1067C24.4333 53.3149 24.3164 53.5972 24.3164 53.8916C24.3175 54.6578 24.5612 55.4039 25.0125 56.0231C25.4638 56.6423 26.0996 57.1027 26.8286 57.3383V57.8986C26.8286 58.193 26.9456 58.4753 27.1537 58.6834C27.3619 58.8916 27.6442 59.0085 27.9385 59.0085C28.2329 59.0085 28.5152 58.8916 28.7233 58.6834C28.9315 58.4753 29.0484 58.193 29.0484 57.8986V57.3383C29.8703 57.074 30.5707 56.5248 31.0234 55.7897C31.476 55.0546 31.6512 54.182 31.5173 53.3291C31.3834 52.4762 30.9492 51.6993 30.293 51.1383C29.6368 50.5773 28.8018 50.2691 27.9385 50.2694C27.5694 50.2652 27.2168 50.1156 26.9572 49.853C26.6977 49.5905 26.5521 49.2362 26.5521 48.867C26.5521 48.4978 26.6977 48.1435 26.9572 47.881C27.2168 47.6184 27.5694 47.4688 27.9385 47.4646L27.9393 47.4636Z" fill="#246ED0"/>
</svg>
