<svg width="28" height="29" viewBox="0 0 28 29" fill="none" xmlns="http://www.w3.org/2000/svg">
<path d="M14 0.663086C6.272 0.663086 0 6.93509 0 14.6631C0 22.3911 6.272 28.6631 14 28.6631C21.728 28.6631 28 22.3911 28 14.6631C28 6.93509 21.728 0.663086 14 0.663086ZM14 4.86309C16.324 4.86309 18.2 6.73909 18.2 9.06309C18.2 11.3871 16.324 13.2631 14 13.2631C11.676 13.2631 9.8 11.3871 9.8 9.06309C9.8 6.73909 11.676 4.86309 14 4.86309ZM14 24.7431C10.5 24.7431 7.406 22.9511 5.6 20.2351C5.642 17.4491 11.2 15.9231 14 15.9231C16.786 15.9231 22.358 17.4491 22.4 20.2351C20.594 22.9511 17.5 24.7431 14 24.7431Z" fill="#9C9C9C"/>
</svg>
